<svg width="169" height="40" viewBox="0 0 169 40" fill="none" xmlns="http://www.w3.org/2000/svg">
<path d="M169.001 0.82186V7.21596C163.066 7.22085 156.274 7.23308 150.339 7.19396C149.971 7.19396 149.617 7.05523 149.347 6.80548L142.965 0.902943C142.933 0.874059 142.954 0.82186 142.996 0.82186H169.001Z" fill="white"/>
<path d="M72.5675 18.2803V22.0188C72.5675 22.8115 73.2101 23.4502 74.0028 23.4591C80.3505 23.4591 86.6981 23.4542 93.0457 23.4664C93.6913 23.4664 94.3588 23.4859 94.9774 23.6473C97.2001 24.2317 98.7039 26.5424 98.4422 28.8702C98.1782 31.2298 96.2514 33.0612 93.8404 33.0857C89.3633 33.1321 84.8887 33.1003 80.4116 33.1052C79.6859 33.1052 79.1181 33.7359 79.1181 34.4616V38.0004C79.1181 38.8715 79.8242 39.582 80.6952 39.5776C85.3753 39.5629 90.0651 39.7439 94.7305 39.4847C101.034 39.135 105.729 33.0514 104.873 26.8236C104.561 24.5534 103.677 22.597 102.228 20.8945C101.885 20.4917 101.863 19.9019 102.198 19.493C105.267 15.7837 105.888 11.6465 103.861 7.34297C101.858 3.08839 98.3077 0.873067 93.5397 0.843725C87.0282 0.802157 80.5192 0.8315 74.0077 0.83639C73.4672 0.831155 73.1994 1.49031 73.5904 1.86352L78.3183 6.3765C78.8999 6.93162 79.6701 7.24644 80.4741 7.25224C84.619 7.28211 89.2923 7.22696 93.3172 7.24028C96.3467 7.25006 98.452 9.24531 98.4667 12.0744C98.4813 14.9597 96.3541 16.9794 93.2731 16.9818C86.8032 16.9892 80.3333 16.9843 73.8634 16.9843C73.1477 16.9843 72.5675 17.5645 72.5675 18.2803Z" fill="white"/>
<path d="M124.498 0.966309C126.422 2.93711 128.359 4.89569 130.251 6.89583C130.491 7.14769 130.591 7.62205 130.591 7.99616C130.611 16.0994 130.608 24.2052 130.594 32.3084C130.594 32.6483 130.535 33.0982 130.32 33.311C128.327 35.272 126.295 37.1914 124.236 39.1598C124.236 26.5378 124.236 13.8694 124.236 1.20105C124.324 1.1228 124.41 1.04455 124.498 0.966309Z" fill="white"/>
<path d="M53.9013 0.934082C55.7914 2.88532 57.7011 4.82434 59.557 6.80736C59.821 7.091 59.9506 7.60449 59.9531 8.01039C59.9751 16.077 59.9751 24.146 59.9555 32.2126C59.9555 32.6234 59.8553 33.1589 59.5912 33.4279C57.6571 35.3938 55.6667 37.3059 53.625 39.3036C53.625 26.5667 53.625 13.8592 53.625 1.14925C53.713 1.08079 53.8059 1.00744 53.9013 0.934082Z" fill="white"/>
<path d="M167.985 17.0625C168.538 17.0625 168.985 17.5102 168.985 18.0625C168.985 19.5235 168.985 20.9456 168.985 22.3857C168.985 22.938 168.538 23.3857 167.985 23.3857C160.055 23.3857 152.19 23.3857 144.245 23.3857C143.693 23.3857 143.245 22.938 143.245 22.3857C143.245 20.954 143.245 19.5231 143.245 18.0625C143.245 17.5102 143.693 17.0625 144.245 17.0625C152.135 17.0625 160.023 17.0625 167.985 17.0625Z" fill="white"/>
<path d="M169.001 39.4945V33.1004C163.066 33.0956 156.274 33.0833 150.339 33.1224C149.971 33.1224 149.617 33.2612 149.347 33.5109L142.965 39.4135C142.933 39.4423 142.954 39.4945 142.996 39.4945H169.001Z" fill="white"/>
<path d="M32.4351 26.672C28.0729 17.9966 23.8208 9.53632 19.4488 0.838867C12.9154 13.8471 6.50414 26.6182 0 39.5703C2.18842 39.5703 4.16656 39.5214 6.14225 39.5947C6.98339 39.6265 7.36484 39.2842 7.7096 38.5971C10.8443 32.3253 14.001 26.0656 17.1553 19.8036C17.8766 18.3731 18.6224 16.9525 19.4562 15.3289C19.8425 16.0576 20.1359 16.5784 20.4025 17.1139L25.1852 26.6183L25.4982 26.6353C27.7453 26.6989 29.9948 26.672 32.4351 26.672Z" fill="white"/>
<path d="M32.2518 39.5405C34.3938 39.5968 36.5382 39.5699 38.8685 39.5699L35.6995 33.2198L31.665 33.188L28.5156 33.188L31.665 39.5405H32.2518Z" fill="white"/>
</svg>
