<svg width="39" height="40" viewBox="0 0 39 40" fill="none" xmlns="http://www.w3.org/2000/svg">
<path d="M32.4351 26.672C28.0729 17.9966 23.8208 9.53632 19.4488 0.838867C12.9154 13.8471 6.50414 26.6182 0 39.5703C2.18842 39.5703 4.16656 39.5214 6.14225 39.5947C6.98339 39.6265 7.36484 39.2842 7.7096 38.5971C10.8443 32.3253 14.001 26.0656 17.1553 19.8036C17.8766 18.3731 18.6224 16.9525 19.4562 15.3289C19.8425 16.0576 20.1359 16.5784 20.4025 17.1139L25.1852 26.6183L25.4982 26.6353C27.7453 26.6989 29.9948 26.672 32.4351 26.672Z" fill="white"/>
<path d="M32.2518 39.5405C34.3938 39.5968 36.5382 39.5699 38.8685 39.5699L35.6995 33.2198L31.665 33.188L28.5156 33.188L31.665 39.5405H32.2518Z" fill="white"/>
</svg>
